<svg xmlns="http://www.w3.org/2000/svg" width="256.667" height="32.17" viewBox="0 0 270077 33851" shape-rendering="geometricPrecision" text-rendering="geometricPrecision" image-rendering="optimizeQuality" fill-rule="evenodd" clip-rule="evenodd"><defs><style><![CDATA[
    .str0 {stroke:white;stroke-width:701.146}
    .fil0 {fill:#white}
    .fil1 {fill:white}
    .fil2 {fill:white;fill-rule:nonzero}
   ]]></style></defs><g id="Layer_x0020_1"><path class="fil0 str0" d="M227901 33501c-19332-1206-51849-4938-117457-9219-38414-2506-86415 2349-110093 4819C81994 6790 162395 2141 227901 33501z"/><path class="fil0 str0" d="M351 29101V4391c0-2225 1815-4040 4040-4040h169386c9351 8707 15646 15710 20020 21641C135421 4051 69829 10115 351 29101z"/><path class="fil0 str0" d="M173777 351h95949v29324c-9236 1913-24185 2991-34511 3520-13988 716-27077-7223-41418-11203-4374-5931-10669-12933-20020-21641z"/></g></svg>