<svg id="Ñëîé_1" data-name="Ñëîé 1" xmlns="http://www.w3.org/2000/svg" viewBox="0 0 150 150"><defs><style>.cls-1{fill:#1d2345;}.cls-1,.cls-2,.cls-4{stroke:#1d2345;stroke-miterlimit:10;}.cls-1,.cls-2,.cls-3,.cls-4{fill-rule:evenodd;}.cls-2{fill:#fff;}.cls-3,.cls-4{fill:none;}</style></defs><title>homePage</title><path class="cls-1" d="M75,13.76A61.24,61.24,0,1,1,13.76,75,61.25,61.25,0,0,1,75,13.76h0Z"/><path class="cls-2" d="M102.08,70H85.75a4.8,4.8,0,0,0-5,4.49v2.33a4.8,4.8,0,0,0,5,4.49h16.34a4.81,4.81,0,0,0,5-4.49V74.49a4.8,4.8,0,0,0-5-4.49h0Z"/><path class="cls-2" d="M49.13,48.15H98.48c3.44,0,6.25,2.24,6.25,5v13.3c0,1.91-.2,2.16-2.69,2.16H86.36c-4.09,0-7.42,2.65-7.42,5.91v2.33c0,3.24,3.34,5.91,7.42,5.91H102.1c2.49,0,2.63.18,2.63,1.91V98.19c0,2.73-2.8,5-6.25,5H49.13c-3.44,0-6.26-2.24-6.26-5V53.13c0-2.74,2.82-5,6.26-5h0Z"/><path class="cls-1" d="M86.95,72.25a3.41,3.41,0,1,1-3.42,3.4,3.4,3.4,0,0,1,3.42-3.4h0Z"/><path class="cls-3" d="M75,15A60,60,0,1,1,15,75,60,60,0,0,1,75,15h0Z"/><path class="cls-4" d="M75,15A60,60,0,1,1,15,75,60,60,0,0,1,75,15h0Z"/></svg>